<?xml version="1.0" encoding="UTF-8"?>
<svg version="1.1" xmlns="http://www.w3.org/2000/svg" width="240" height="240">
<path d="M0 0 C9.03272723 -0.04542395 18.06537695 -0.08201486 27.09819317 -0.10362434 C31.29377723 -0.11400271 35.48927819 -0.12805137 39.68481445 -0.15087891 C43.74377557 -0.1728218 47.80265744 -0.18461317 51.86167336 -0.18975449 C53.39999448 -0.19341217 54.93831193 -0.20055299 56.47659874 -0.21146011 C78.63146224 -0.36211005 100.23592483 3.49541723 116.72265625 19.4609375 C132.34797349 36.88196015 135.99129095 55.16093639 135.1953125 77.96240234 C134.80451423 84.04029239 133.42109732 89.39125103 131 95 C130.59910156 95.94230469 130.19820312 96.88460937 129.78515625 97.85546875 C123.51778682 110.73536709 111.46928038 122.13981063 99 129 C98.34 129 97.68 129 97 129 C101.60902039 134.40014696 106.40085737 139.51840743 111.46484375 144.4921875 C112.85494379 145.86966444 114.24491418 147.24727223 115.63476562 148.625 C117.80129119 150.76653766 119.96940629 152.90642173 122.13989258 155.04394531 C124.25251779 157.1265556 126.35903353 159.21518989 128.46484375 161.3046875 C129.44903542 162.26868973 129.44903542 162.26868973 130.45310974 163.25216675 C131.35018394 164.14417282 131.35018394 164.14417282 132.26538086 165.05419922 C132.7949791 165.57634003 133.32457733 166.09848083 133.870224 166.63644409 C135 168 135 168 135 170 C121.70244525 172.86585232 105.3474401 175.66761929 93.12786865 168.25854492 C79.82981789 158.43135926 60.42538602 141.65318933 54 126 C53.54957769 120.41476332 53.74877426 116.76846442 57 112 C61.40026518 108.52679365 65.30026217 107.26512703 70.75 106.5 C83.44235958 104.35901536 92.44999199 100.31406169 100.66796875 89.8828125 C106.86719833 80.53851923 107.01415623 69.84133006 106 59 C105.16936804 55.28103418 103.89522002 52.29138525 102 49 C101.59910156 48.22398438 101.19820313 47.44796875 100.78515625 46.6484375 C96.05738563 38.45363509 88.7508673 33.99882797 79.8203125 31.34765625 C74.21339069 29.90516065 68.83365377 29.4527711 63.0625 29.3125 C62.06089844 29.27833984 61.05929688 29.24417969 60.02734375 29.20898438 C53.07256051 28.99329806 46.12447111 28.9627332 39.16723633 29.01879883 C26.10969382 29.08477868 13.04695274 28.46955614 0 28 C0 18.76 0 9.52 0 0 Z " fill="#79BF26" transform="translate(52,35)"/>
<path d="M0 0 C1.16155609 -0.00960754 2.32311218 -0.01921509 3.51986694 -0.02911377 C4.77095245 -0.03336365 6.02203796 -0.03761353 7.31103516 -0.04199219 C8.60071198 -0.04769226 9.89038879 -0.05339233 11.21914673 -0.05926514 C13.94769686 -0.06975384 16.67621772 -0.07561054 19.40478516 -0.07910156 C22.89056918 -0.08458443 26.37596225 -0.10861647 29.86162376 -0.13707352 C33.1989198 -0.16024358 36.53616289 -0.16215206 39.87353516 -0.16699219 C41.74409073 -0.18551239 41.74409073 -0.18551239 43.6524353 -0.20440674 C50.56584017 -0.18664108 55.67123422 -0.02508958 61.03759766 4.78613281 C63.56627526 9.84348801 63.66439221 14.58484058 62.16259766 19.97363281 C59.128947 24.96447745 55.81213759 26.76437283 50.22509766 28.16113281 C37.02509766 28.16113281 23.82509766 28.16113281 10.22509766 28.16113281 C10.22509766 57.20113281 10.22509766 86.24113281 10.22509766 116.16113281 C0.98509766 116.16113281 -8.25490234 116.16113281 -17.77490234 116.16113281 C-17.84267778 102.44407947 -17.89771847 88.72713734 -17.93033886 75.00995445 C-17.94599495 68.64052484 -17.96723255 62.27121573 -18.0012207 55.90185547 C-18.03381563 49.75512126 -18.05175579 43.60850296 -18.05953407 37.461689 C-18.0650773 35.11653443 -18.07590178 32.7713862 -18.09209251 30.42628098 C-18.11386809 27.14163246 -18.11686915 23.85746298 -18.11547852 20.57275391 C-18.12626434 19.60314728 -18.13705017 18.63354065 -18.14816284 17.634552 C-18.12415485 12.3943022 -17.76126588 8.66991511 -14.77490234 4.16113281 C-10.00566917 0.61477994 -5.82852395 0.03897294 0 0 Z " fill="#F7A930" transform="translate(69.77490234375,88.8388671875)"/>
<path d="M0 0 C4.46299185 0.50144321 6.5264154 2.84041787 9.51705933 5.93148804 C10.41082527 6.81912086 10.41082527 6.81912086 11.32264709 7.72468567 C13.28525085 9.68128056 15.22554754 11.65849391 17.16598511 13.63705444 C18.52387697 15.00106182 19.88295373 16.36389056 21.24316406 17.72558594 C24.08834589 20.57996884 26.92342687 23.44388662 29.75094604 26.31576538 C33.38254094 30.00403227 37.0313684 33.67462183 40.68693352 37.33911705 C43.49139764 40.15187711 46.29015308 42.97025523 49.08682632 45.79076004 C50.43117066 47.14652731 51.77647505 48.50134329 53.12273788 49.85520554 C54.9977925 51.74394719 56.86588976 53.63928755 58.73190308 55.53695679 C59.29287186 56.10016129 59.85384064 56.66336578 60.43180847 57.24363708 C64.23629761 61.13423207 64.23629761 61.13423207 64.23629761 63.36361694 C50.93874286 66.22946926 34.58373771 69.03123623 22.36416626 61.62216187 C9.0661155 51.7949762 -10.33831637 35.01680628 -16.76370239 19.36361694 C-17.21412471 13.77838026 -17.01492813 10.13208136 -13.76370239 5.36361694 C-9.16831269 1.66732522 -5.67042834 0.74605132 0 0 Z " fill="#47B4E1" transform="translate(122.76370239257813,141.63638305664063)"/>
</svg>
